<svg width="15" height="15" viewBox="0 0 15 15" fill="none" xmlns="http://www.w3.org/2000/svg">
<path d="M0.000305176 0.5C0.000305176 0.367392 0.0529836 0.240215 0.146752 0.146447C0.24052 0.0526784 0.367697 0 0.500305 0H2.00031C2.11184 3.08115e-05 2.22016 0.0373507 2.30804 0.106025C2.39592 0.174699 2.45831 0.270784 2.48531 0.379L2.89031 2H14.5003C14.5737 2.00007 14.6462 2.0163 14.7127 2.04755C14.7791 2.0788 14.8378 2.12429 14.8847 2.1808C14.9316 2.23731 14.9654 2.30345 14.9838 2.37452C15.0023 2.44558 15.0048 2.51984 14.9913 2.592L13.4913 10.592C13.4699 10.7066 13.409 10.8101 13.3194 10.8846C13.2297 10.9591 13.1169 10.9999 13.0003 11H4.00031C3.88374 10.9999 3.77087 10.9591 3.68122 10.8846C3.59156 10.8101 3.53075 10.7066 3.50931 10.592L2.01031 2.607L1.61031 1H0.500305C0.367697 1 0.24052 0.947322 0.146752 0.853553C0.0529836 0.759785 0.000305176 0.632608 0.000305176 0.5ZM3.10231 3L4.41531 10H12.5853L13.8983 3H3.10231ZM5.00031 11C4.46987 11 3.96116 11.2107 3.58609 11.5858C3.21102 11.9609 3.00031 12.4696 3.00031 13C3.00031 13.5304 3.21102 14.0391 3.58609 14.4142C3.96116 14.7893 4.46987 15 5.00031 15C5.53074 15 6.03945 14.7893 6.41452 14.4142C6.78959 14.0391 7.00031 13.5304 7.00031 13C7.00031 12.4696 6.78959 11.9609 6.41452 11.5858C6.03945 11.2107 5.53074 11 5.00031 11ZM12.0003 11C11.4699 11 10.9612 11.2107 10.5861 11.5858C10.211 11.9609 10.0003 12.4696 10.0003 13C10.0003 13.5304 10.211 14.0391 10.5861 14.4142C10.9612 14.7893 11.4699 15 12.0003 15C12.5307 15 13.0394 14.7893 13.4145 14.4142C13.7896 14.0391 14.0003 13.5304 14.0003 13C14.0003 12.4696 13.7896 11.9609 13.4145 11.5858C13.0394 11.2107 12.5307 11 12.0003 11ZM5.00031 12C5.26552 12 5.51988 12.1054 5.70741 12.2929C5.89495 12.4804 6.00031 12.7348 6.00031 13C6.00031 13.2652 5.89495 13.5196 5.70741 13.7071C5.51988 13.8946 5.26552 14 5.00031 14C4.73509 14 4.48073 13.8946 4.2932 13.7071C4.10566 13.5196 4.00031 13.2652 4.00031 13C4.00031 12.7348 4.10566 12.4804 4.2932 12.2929C4.48073 12.1054 4.73509 12 5.00031 12ZM12.0003 12C12.2655 12 12.5199 12.1054 12.7074 12.2929C12.8949 12.4804 13.0003 12.7348 13.0003 13C13.0003 13.2652 12.8949 13.5196 12.7074 13.7071C12.5199 13.8946 12.2655 14 12.0003 14C11.7351 14 11.4807 13.8946 11.2932 13.7071C11.1057 13.5196 11.0003 13.2652 11.0003 13C11.0003 12.7348 11.1057 12.4804 11.2932 12.2929C11.4807 12.1054 11.7351 12 12.0003 12V12Z" fill="#23A6F0"/>
</svg>
