<svg width="12" height="12" viewBox="0 0 12 12" fill="none" xmlns="http://www.w3.org/2000/svg">
<path d="M5.99969 6C6.79534 6 7.55841 5.68393 8.12102 5.12132C8.68362 4.55871 8.99969 3.79565 8.99969 3C8.99969 2.20435 8.68362 1.44129 8.12102 0.87868C7.55841 0.316071 6.79534 0 5.99969 0C5.20405 0 4.44098 0.316071 3.87837 0.87868C3.31577 1.44129 2.99969 2.20435 2.99969 3C2.99969 3.79565 3.31577 4.55871 3.87837 5.12132C4.44098 5.68393 5.20405 6 5.99969 6ZM7.99969 3C7.99969 3.53043 7.78898 4.03914 7.41391 4.41421C7.03884 4.78929 6.53013 5 5.99969 5C5.46926 5 4.96055 4.78929 4.58548 4.41421C4.21041 4.03914 3.99969 3.53043 3.99969 3C3.99969 2.46957 4.21041 1.96086 4.58548 1.58579C4.96055 1.21071 5.46926 1 5.99969 1C6.53013 1 7.03884 1.21071 7.41391 1.58579C7.78898 1.96086 7.99969 2.46957 7.99969 3ZM11.9997 11C11.9997 12 10.9997 12 10.9997 12H0.999695C0.999695 12 -0.000305176 12 -0.000305176 11C-0.000305176 10 0.999695 7 5.99969 7C10.9997 7 11.9997 10 11.9997 11ZM10.9997 10.996C10.9987 10.75 10.8457 10.01 10.1677 9.332C9.51569 8.68 8.28869 8 5.99969 8C3.70969 8 2.48369 8.68 1.83169 9.332C1.15369 10.01 1.00169 10.75 0.999695 10.996H10.9997Z" fill="#23A6F0"/>
</svg>

