<svg width="16" height="16" viewBox="0 0 16 16" fill="none" xmlns="http://www.w3.org/2000/svg">
<path d="M11.7426 10.3439C12.7109 9.02264 13.1446 7.38444 12.9569 5.7571C12.7692 4.12976 11.974 2.63329 10.7304 1.56708C9.48671 0.500869 7.88634 -0.0564485 6.24943 0.00662462C4.61252 0.0696978 3.05978 0.74851 1.90186 1.90726C0.743944 3.066 0.0662432 4.61922 0.00434136 6.25618C-0.0575605 7.89314 0.500902 9.49311 1.568 10.736C2.6351 11.9789 4.13214 12.773 5.75961 12.9595C7.38709 13.1461 9.02497 12.7112 10.3456 11.7419H10.3446C10.3746 11.7819 10.4066 11.8199 10.4426 11.8569L14.2926 15.7069C14.4801 15.8946 14.7345 16.0001 14.9997 16.0001C15.265 16.0002 15.5195 15.895 15.7071 15.7074C15.8947 15.5199 16.0002 15.2656 16.0003 15.0003C16.0004 14.735 15.8951 14.4806 15.7076 14.2929L11.8576 10.4429C11.8218 10.4068 11.7834 10.3733 11.7426 10.3429V10.3439ZM12.0006 6.49995C12.0006 7.22222 11.8583 7.93742 11.5819 8.60471C11.3055 9.272 10.9004 9.87831 10.3897 10.389C9.87896 10.8998 9.27264 11.3049 8.60535 11.5813C7.93806 11.8577 7.22286 11.9999 6.50059 11.9999C5.77832 11.9999 5.06312 11.8577 4.39583 11.5813C3.72854 11.3049 3.12223 10.8998 2.61151 10.389C2.10078 9.87831 1.69566 9.272 1.41926 8.60471C1.14285 7.93742 1.00059 7.22222 1.00059 6.49995C1.00059 5.04126 1.58006 3.64231 2.61151 2.61086C3.64296 1.57941 5.0419 0.999948 6.50059 0.999948C7.95928 0.999948 9.35823 1.57941 10.3897 2.61086C11.4211 3.64231 12.0006 5.04126 12.0006 6.49995V6.49995Z" fill="#23A6F0"/>
</svg>
